<?xml version="1.0" standalone="no"?>
<!DOCTYPE svg PUBLIC "-//W3C//DTD SVG 20010904//EN"
 "http://www.w3.org/TR/2001/REC-SVG-20010904/DTD/svg10.dtd">
<svg version="1.0" xmlns="http://www.w3.org/2000/svg"
 width="700.000000pt" height="700.000000pt" viewBox="0 0 700.000000 700.000000"
 preserveAspectRatio="xMidYMid meet">
<metadata>
Created by potrace 1.14, written by Peter Selinger 2001-2017
</metadata>
<g transform="translate(0.000000,700.000000) scale(0.100000,-0.100000)"
fill="#000000" stroke="none">
<path d="M3298 6705 c-2 -2 -37 -6 -80 -9 -42 -4 -91 -9 -110 -11 -18 -3 -53
-8 -78 -11 -25 -3 -76 -12 -115 -19 -38 -8 -81 -16 -95 -19 -123 -21 -391
-106 -547 -171 -76 -33 -288 -135 -348 -169 -471 -263 -909 -693 -1186 -1161
-212 -360 -367 -799 -415 -1180 -2 -22 -7 -51 -9 -65 -19 -121 -26 -497 -12
-665 6 -78 20 -181 42 -318 26 -157 107 -429 187 -624 194 -474 519 -920 898
-1233 41 -34 84 -69 95 -79 11 -9 52 -39 90 -66 39 -27 72 -52 75 -55 19 -23
286 -177 410 -236 171 -81 253 -115 400 -162 199 -63 349 -100 475 -117 22 -3
58 -8 80 -12 22 -3 51 -7 65 -9 185 -25 606 -25 760 0 14 3 48 7 75 11 277 33
635 141 930 281 146 69 418 230 504 299 9 8 63 50 121 96 132 103 379 350 494
494 82 104 256 354 256 370 0 4 9 19 20 35 19 27 132 248 163 320 113 262 191
540 232 825 4 22 8 51 10 64 20 117 26 508 12 666 -13 138 -17 165 -43 313 -2
12 -6 32 -8 45 -2 12 -14 63 -26 112 -12 50 -23 97 -25 105 -2 8 -20 67 -40
130 -356 1105 -1282 1934 -2418 2164 -110 22 -150 29 -252 41 -16 2 -55 7 -85
10 -55 7 -496 15 -502 10z m417 -589 c79 -8 209 -24 246 -31 13 -3 47 -9 74
-15 28 -6 59 -12 70 -14 73 -14 277 -81 396 -129 415 -170 816 -477 1079 -826
14 -18 34 -45 46 -59 89 -116 228 -364 297 -532 79 -190 149 -442 171 -610 3
-25 8 -54 10 -65 9 -44 19 -215 20 -320 1 -188 -14 -343 -50 -525 -31 -153
-25 -131 -68 -272 -97 -319 -291 -669 -511 -923 -233 -270 -497 -477 -810
-635 -208 -106 -483 -202 -665 -234 -19 -3 -46 -8 -59 -11 -13 -2 -49 -7 -80
-11 -31 -3 -59 -8 -62 -10 -26 -15 -372 -22 -523 -10 -233 17 -570 93 -721
160 -16 8 -41 17 -55 21 -42 12 -303 141 -366 181 -88 55 -167 107 -184 121
-176 138 -240 193 -339 293 -354 357 -597 810 -699 1300 -11 52 -23 118 -27
145 -3 28 -8 57 -10 65 -23 90 -23 545 1 664 2 11 7 41 10 66 3 25 15 86 25
135 11 50 22 101 25 115 11 56 70 232 109 330 99 246 234 473 414 694 53 66
249 268 302 311 13 11 47 38 74 61 301 246 696 434 1090 520 57 13 116 23 164
29 30 4 63 8 74 11 11 2 61 6 111 10 50 3 92 7 93 8 5 5 262 -1 328 -8z"/>
<path d="M2539 4652 c-127 -43 -202 -145 -202 -277 -1 -164 122 -287 288 -289
307 -3 405 415 129 550 -65 32 -150 38 -215 16z"/>
<path d="M4289 4653 c-71 -23 -137 -79 -172 -147 -26 -50 -31 -70 -30 -130 0
-167 122 -288 289 -289 117 -1 209 56 266 166 30 58 31 173 2 238 -63 137
-216 206 -355 162z"/>
<path d="M2263 3201 c-160 -41 -257 -220 -204 -378 20 -59 63 -115 176 -229
274 -277 645 -474 995 -529 25 -4 54 -9 65 -12 38 -8 310 -10 370 -3 308 39
550 129 800 298 151 102 184 129 322 270 140 142 167 192 167 302 -1 60 -6 85
-27 125 -53 105 -159 167 -273 161 -104 -6 -141 -29 -264 -161 -214 -229 -494
-381 -760 -412 -361 -41 -738 108 -1004 397 -94 101 -126 130 -173 151 -51 23
-140 33 -190 20z"/>
</g>
</svg>
